<svg xmlns="http://www.w3.org/2000/svg" width="1000" height="568" viewBox="0 0 1000 568" role="img" aria-label="Trajetória de Gabriel Vasconcellos Gomes: 2026 Bradesco, Estagiário de Desenvolvimento e Sustentação de Sistemas; 2026 Global Solution Space Connect, Campeão com a UTOPIA, plataforma de inteligência urbana; 2025 FIAP, Bacharelado em Sistemas de Informação, 2025 a 2028; 2023 Clube de Ciências Econômicas, Fundador, mais de 80h de atividades e visitas à FGV e ao IBMEC; 2021 Colégio Presbiteriano Mackenzie, Ensino médio com Honra Acadêmica, entre os cinco melhores alunos; 2010 Judô, Associação Alto da Lapa, Faixa preta, campeão sul-americano e pan-americano">
  <style>
    .year  { font: 700 15px system-ui, -apple-system, "Segoe UI", Helvetica, Arial, sans-serif; letter-spacing:.4px }
    .title { font: 650 16.5px system-ui, -apple-system, "Segoe UI", Helvetica, Arial, sans-serif; fill: #E9EFF6 }
    .desc  { font: 400 13.5px system-ui, -apple-system, "Segoe UI", Helvetica, Arial, sans-serif; fill: #9FAAB8 }
    .row   { opacity: 0; animation: in .5s ease-out forwards }
    .rail  { opacity: 0; animation: fade .9s ease-out .1s forwards }
    @keyframes in   { from { opacity:0; transform: translateX(-10px) } to { opacity:1; transform: translateX(0) } }
    @keyframes fade { to { opacity:1 } }
    @media (prefers-reduced-motion: reduce) { .row, .rail { opacity:1; animation:none } }
  </style>
  <defs>
    <linearGradient id="rail" gradientUnits="userSpaceOnUse" x1="0" y1="64" x2="0" y2="504">
      <stop offset="0.0%" stop-color="#FF4D5E"/>
      <stop offset="20.0%" stop-color="#A796FF"/>
      <stop offset="40.0%" stop-color="#FF6FA3"/>
      <stop offset="60.0%" stop-color="#F2C14E"/>
      <stop offset="80.0%" stop-color="#FF8E84"/>
      <stop offset="100.0%" stop-color="#3FD68C"/>
    </linearGradient>
  </defs>
  <line class="rail" x1="104" y1="64" x2="104" y2="504" stroke="url(#rail)" stroke-width="3" stroke-linecap="round" stroke-opacity=".8"/>
  <g class="row" style="animation-delay:0.00s">
    <text x="74" y="69" text-anchor="end" class="year" fill="#FF4D5E">2026</text>
    <circle cx="104" cy="64" r="6.5" fill="#FF4D5E"/>
    <circle cx="104" cy="64" r="12.5" fill="none" stroke="#FF4D5E" stroke-opacity=".3" stroke-width="2"/>
    <rect x="134" y="30" width="836" height="68" rx="12" fill="#151A22"/>
    <rect x="134" y="30" width="836" height="68" rx="12" fill="#FF4D5E" fill-opacity="0.13" stroke="#FF4D5E" stroke-opacity="0.42"/>
    <rect x="134" y="31" width="4" height="66" rx="2" fill="#FF4D5E"/>
    <text x="158" y="59" class="title">Bradesco</text>
    <text x="158" y="81" class="desc">Estagiário de Desenvolvimento e Sustentação de Sistemas</text>
  </g>
  <g class="row" style="animation-delay:0.09s">
    <text x="74" y="157" text-anchor="end" class="year" fill="#A796FF">2026</text>
    <circle cx="104" cy="152" r="6.5" fill="#A796FF"/>
    <circle cx="104" cy="152" r="12.5" fill="none" stroke="#A796FF" stroke-opacity=".3" stroke-width="2"/>
    <rect x="134" y="118" width="836" height="68" rx="12" fill="#151A22"/>
    <rect x="134" y="118" width="836" height="68" rx="12" fill="#A796FF" fill-opacity="0.13" stroke="#A796FF" stroke-opacity="0.42"/>
    <rect x="134" y="119" width="4" height="66" rx="2" fill="#A796FF"/>
    <text x="158" y="147" class="title">Global Solution Space Connect</text>
    <text x="158" y="169" class="desc">Campeão com a UTOPIA, plataforma de inteligência urbana</text>
  </g>
  <g class="row" style="animation-delay:0.18s">
    <text x="74" y="245" text-anchor="end" class="year" fill="#FF6FA3">2025</text>
    <circle cx="104" cy="240" r="6.5" fill="#FF6FA3"/>
    <circle cx="104" cy="240" r="12.5" fill="none" stroke="#FF6FA3" stroke-opacity=".3" stroke-width="2"/>
    <rect x="134" y="206" width="836" height="68" rx="12" fill="#151A22"/>
    <rect x="134" y="206" width="836" height="68" rx="12" fill="#FF6FA3" fill-opacity="0.13" stroke="#FF6FA3" stroke-opacity="0.42"/>
    <rect x="134" y="207" width="4" height="66" rx="2" fill="#FF6FA3"/>
    <text x="158" y="235" class="title">FIAP</text>
    <text x="158" y="257" class="desc">Bacharelado em Sistemas de Informação, 2025 a 2028</text>
  </g>
  <g class="row" style="animation-delay:0.27s">
    <text x="74" y="333" text-anchor="end" class="year" fill="#F2C14E">2023</text>
    <circle cx="104" cy="328" r="6.5" fill="#F2C14E"/>
    <circle cx="104" cy="328" r="12.5" fill="none" stroke="#F2C14E" stroke-opacity=".3" stroke-width="2"/>
    <rect x="134" y="294" width="836" height="68" rx="12" fill="#151A22"/>
    <rect x="134" y="294" width="836" height="68" rx="12" fill="#F2C14E" fill-opacity="0.13" stroke="#F2C14E" stroke-opacity="0.42"/>
    <rect x="134" y="295" width="4" height="66" rx="2" fill="#F2C14E"/>
    <text x="158" y="323" class="title">Clube de Ciências Econômicas</text>
    <text x="158" y="345" class="desc">Fundador, mais de 80h de atividades e visitas à FGV e ao IBMEC</text>
  </g>
  <g class="row" style="animation-delay:0.36s">
    <text x="74" y="421" text-anchor="end" class="year" fill="#FF8E84">2021</text>
    <circle cx="104" cy="416" r="6.5" fill="#FF8E84"/>
    <circle cx="104" cy="416" r="12.5" fill="none" stroke="#FF8E84" stroke-opacity=".3" stroke-width="2"/>
    <rect x="134" y="382" width="836" height="68" rx="12" fill="#151A22"/>
    <rect x="134" y="382" width="836" height="68" rx="12" fill="#FF8E84" fill-opacity="0.13" stroke="#FF8E84" stroke-opacity="0.42"/>
    <rect x="134" y="383" width="4" height="66" rx="2" fill="#FF8E84"/>
    <text x="158" y="411" class="title">Colégio Presbiteriano Mackenzie</text>
    <text x="158" y="433" class="desc">Ensino médio com Honra Acadêmica, entre os cinco melhores alunos</text>
  </g>
  <g class="row" style="animation-delay:0.45s">
    <text x="74" y="509" text-anchor="end" class="year" fill="#3FD68C">2010</text>
    <circle cx="104" cy="504" r="6.5" fill="#3FD68C"/>
    <circle cx="104" cy="504" r="12.5" fill="none" stroke="#3FD68C" stroke-opacity=".3" stroke-width="2"/>
    <rect x="134" y="470" width="836" height="68" rx="12" fill="#151A22"/>
    <rect x="134" y="470" width="836" height="68" rx="12" fill="#3FD68C" fill-opacity="0.13" stroke="#3FD68C" stroke-opacity="0.42"/>
    <rect x="134" y="471" width="4" height="66" rx="2" fill="#3FD68C"/>
    <text x="158" y="499" class="title">Judô, Associação Alto da Lapa</text>
    <text x="158" y="521" class="desc">Faixa preta, campeão sul-americano e pan-americano</text>
  </g>
</svg>
